<svg width="48" height="86" viewBox="0 0 48 86" fill="none" xmlns="http://www.w3.org/2000/svg">
<path d="M40.9384 55.0664C42.563 54.7426 44.1425 55.7974 44.4667 57.4219C44.6288 58.2344 45.0778 59.6964 45.6982 61.5967C46.2884 63.4046 47.0048 65.5254 47.5849 67.4121L47.829 68.2061L47.6298 69.0127C46.7573 72.5479 44.547 76.1314 41.2646 79.3047L41.1806 79.3848L41.0917 79.459C39.1362 81.0765 36.7054 82.6104 33.1581 84.6992C31.7304 85.5399 29.8914 85.0634 29.0507 83.6357C28.2102 82.2081 28.6856 80.369 30.1132 79.5283C33.5915 77.4802 35.6353 76.168 37.1738 74.9102C39.4957 72.6442 40.916 70.3413 41.5829 68.3301C41.0818 66.7463 40.5184 65.0652 39.9941 63.459C39.4054 61.6558 38.8289 59.8289 38.5829 58.5957C38.2591 56.9709 39.3137 55.3904 40.9384 55.0664ZM5.6767 0C7.3333 0.000131906 8.67647 1.34342 8.6767 3C8.6767 4.36527 8.46191 8.7806 7.84662 15.877C7.05819 24.97 6.44224 34.0739 6.16302 41.1416C6.0232 44.681 5.9689 47.6702 6.01654 49.877C6.04047 50.9851 6.08948 51.8455 6.15619 52.4561C6.17569 52.6344 6.19614 52.7764 6.21381 52.8857C6.64121 53.3224 7.85666 54.1826 12.0302 55.9346C17.5637 58.2574 27.6664 61.8959 38.2148 65.6934C39.7735 66.2545 40.5823 67.9735 40.0214 69.5322C39.4601 71.0909 37.7414 71.9 36.1826 71.3389C25.7167 67.5712 15.4235 63.866 9.70795 61.4668C4.0344 59.0852 2.29137 57.7943 1.04193 55.998L0.951111 55.8672L0.874939 55.7285C0.596936 55.2219 0.460886 54.6969 0.385681 54.3525C0.300218 53.961 0.238134 53.5355 0.191345 53.1074C0.0975691 52.2491 0.0441355 51.194 0.0184937 50.0068C-0.0329949 47.6222 0.0251682 44.494 0.166931 40.9053C0.450973 33.7153 1.0754 24.5119 1.86908 15.3584C2.48361 8.27082 2.6767 4.08222 2.6767 3C2.67693 1.34344 4.02012 0.000162455 5.6767 0Z" fill="black"/>
</svg>
